<svg width="628.142090" height="390.533020" viewBox="0 0 628.142 390.533" fill="none" xmlns="http://www.w3.org/2000/svg" xmlns:xlink="http://www.w3.org/1999/xlink">
	<desc>
			Created with Pixso.
	</desc>
	<defs>
		<filter id="filter_788_3506_dd" x="108.154663" y="0.000000" width="216.859863" height="43.992737" filterUnits="userSpaceOnUse" colorInterpolationFilters="sRGB">
			<feFlood flood-opacity="0" result="BackgroundImageFix"/>
			<feBlend mode="normal" in="SourceGraphic" in2="BackgroundImageFix" result="shape"/>
			<feGaussianBlur stdDeviation="3.33333" result="effect_layerBlur_1"/>
		</filter>
		<filter id="filter_788_3508_dd" x="304.985474" y="0.000000" width="216.859863" height="43.992737" filterUnits="userSpaceOnUse" colorInterpolationFilters="sRGB">
			<feFlood flood-opacity="0" result="BackgroundImageFix"/>
			<feBlend mode="normal" in="SourceGraphic" in2="BackgroundImageFix" result="shape"/>
			<feGaussianBlur stdDeviation="3.33333" result="effect_layerBlur_1"/>
		</filter>
	</defs>
	<path id="bg_hearts" d="M314.071 10.5331C140.614 10.5331 0 54.2281 0 108.129C0 138.134 43.574 164.976 112.131 182.879L112.131 390.533L517.049 390.533L517.049 182.607C585.008 164.704 628.142 137.982 628.142 108.129C628.142 54.2281 487.528 10.5331 314.071 10.5331Z" clip-rule="evenodd" fill="#62196D" fill-opacity="1.000000" fill-rule="evenodd"/>
	<g filter="url(#filter_788_3506_dd)">
		<path id="Vector 44" d="M118.5 32.53C149.5 25.19 232.2 10.73 315 11.53" stroke="#F129CC" strokeOpacity="1.000000" strokeWidth="3.000000"/>
	</g>
	<path id="Vector 45" d="M118.5 32.53C149.5 25.19 232.2 10.73 315 11.53" stroke="#F129CC" strokeOpacity="1.000000" strokeWidth="3.000000"/>
	<g filter="url(#filter_788_3508_dd)">
		<path id="Vector 46" d="M511.5 32.53C480.5 25.19 397.8 10.73 315 11.53" stroke="#FFFF22" strokeOpacity="1.000000" strokeWidth="3.000000"/>
	</g>
	<path id="Vector 47" d="M510.5 32.53C479.5 25.19 396.8 10.73 314 11.53" stroke="#FFFF22" strokeOpacity="1.000000" strokeWidth="3.000000"/>
</svg>
