<svg width="2471.243164" height="779.501831" viewBox="0 0 2471.24 779.502" fill="none" xmlns="http://www.w3.org/2000/svg" xmlns:xlink="http://www.w3.org/1999/xlink">
	<desc>
			Created with Pixso.
	</desc>
	<defs>
		<filter id="filter_883_639_dd" x="504.705444" y="0.000000" width="740.609741" height="95.038086" filterUnits="userSpaceOnUse" color-interpolation-filters="sRGB">
			<feFlood flood-opacity="0" result="BackgroundImageFix"/>
			<feBlend mode="normal" in="SourceGraphic" in2="BackgroundImageFix" result="shape"/>
			<feGaussianBlur stdDeviation="3.33333" result="effect_layerBlur_1"/>
		</filter>
		<filter id="filter_883_642_dd" x="1225.286377" y="0.000000" width="740.609619" height="95.038086" filterUnits="userSpaceOnUse" color-interpolation-filters="sRGB">
			<feFlood flood-opacity="0" result="BackgroundImageFix"/>
			<feBlend mode="normal" in="SourceGraphic" in2="BackgroundImageFix" result="shape"/>
			<feGaussianBlur stdDeviation="3.33333" result="effect_layerBlur_1"/>
		</filter>
	</defs>
	<path id="bg_hearts" d="M0 395.54C0 183.484 553.207 11.5784 1235.62 11.5784C1918.04 11.5784 2471.24 183.484 2471.24 395.54C2471.24 607.596 1918.04 779.502 1235.62 779.502C553.207 779.502 0 607.596 0 395.54Z" clip-rule="evenodd" fill="#62196D" fill-opacity="1.000000" fill-rule="evenodd"/>
	<g filter="url(#filter_883_639_dd)">
		<path id="Vector 44" d="M515.05 83.57C628.67 56.69 931.8 8.7 1235.3 11.63" stroke="#F129CC" stroke-opacity="1.000000" stroke-width="3.000000"/>
	</g>
	<path id="Vector 45" d="M515.05 83.57C628.67 56.69 931.8 8.7 1235.3 11.63" stroke="#F129CC" stroke-opacity="1.000000" stroke-width="3.000000"/>
	<g filter="url(#filter_883_642_dd)">
		<path id="Vector 44" d="M1955.55 83.57C1841.92 56.69 1538.8 8.7 1235.3 11.63" stroke="#FFFF22" stroke-opacity="1.000000" stroke-width="3.000000"/>
	</g>
	<path id="Vector 45" d="M1955.55 83.57C1841.92 56.69 1538.8 8.7 1235.3 11.63" stroke="#FFFF22" stroke-opacity="1.000000" stroke-width="3.000000"/>
</svg>
