<svg width="137" height="80" viewBox="0 0 137 80" fill="none" xmlns="http://www.w3.org/2000/svg">
<path d="M119.048 4.24489C93.7058 -6.34391 74.8912 5.34789 68.6517 12.5174V79.4327C80.3765 75.3884 98.478 67.2997 115.962 57.0051C133.447 46.7104 150.725 17.4809 119.048 4.24489Z" fill="#A7268E"/>
<path d="M18.2557 4.24489C43.5977 -6.34391 62.4122 5.34789 68.6517 12.5174V79.4327C56.9269 75.3884 38.8255 67.2997 21.3411 57.0051C3.8568 46.7104 -13.4219 17.4809 18.2557 4.24489Z" fill="#FBB311"/>
<path d="M113.884 4.24578C91.2314 -6.34525 74.4133 5.34901 68.8358 12.52V79.4494C79.3165 75.4043 95.4973 67.3139 111.126 57.0171C126.756 46.7202 142.201 17.4846 113.884 4.24578Z" fill="white"/>
<path d="M24.1071 4.24578C46.7601 -6.34525 63.5783 5.34901 69.1558 12.52V79.4494C58.6751 75.4043 42.4943 67.3139 26.8652 57.0171C11.2361 46.7202 -4.20918 17.4846 24.1071 4.24578Z" fill="white"/>
</svg>
