<svg width="190.040039" height="127.344482" viewBox="0 0 190.04 127.344" fill="none" xmlns="http://www.w3.org/2000/svg" xmlns:xlink="http://www.w3.org/1999/xlink">
	<desc>
			Created with Pixso.
	</desc>
	<defs/>
	<mask id="mask_883_1006" fill="white">
		<path id="Union" d="M95.02 22.8091C86.6741 12.0681 61.5079 -5.44751 27.6106 10.4158C-14.761 30.2449 8.35083 74.0344 31.7377 89.4568C55.1246 104.88 79.337 116.997 95.02 123.056C110.703 116.997 134.915 104.88 158.302 89.4568C181.689 74.0344 204.801 30.2449 162.429 10.4158C128.532 -5.44751 103.366 12.0681 95.02 22.8091Z" clip-rule="evenodd" fill="" fill-opacity="1.000000" fill-rule="evenodd"/>
	</mask>
	<path id="Union" d="M95.02 22.8091C86.6741 12.0681 61.5079 -5.44751 27.6106 10.4158C-14.761 30.2449 8.35083 74.0344 31.7377 89.4568C55.1246 104.88 79.337 116.997 95.02 123.056C110.703 116.997 134.915 104.88 158.302 89.4568C181.689 74.0344 204.801 30.2449 162.429 10.4158C128.532 -5.44751 103.366 12.0681 95.02 22.8091Z" clip-rule="evenodd" fill="#FFFFFF" fill-opacity="0.000000" fill-rule="evenodd" mask="url(#mask_883_1006)"/>
	<path id="Union" d="M97.7002 19.7491C96.6724 20.8048 95.777 21.8348 95.02 22.8091C94.263 21.8348 93.3676 20.8048 92.3399 19.7491C82.0369 9.16526 58.4333 -4.00865 27.6106 10.4158C-14.761 30.2449 8.35083 74.0344 31.7377 89.4568C55.1246 104.88 79.337 116.997 95.02 123.056C110.703 116.997 134.915 104.88 158.302 89.4568C181.689 74.0344 204.801 30.2449 162.429 10.4158C131.607 -4.00865 108.003 9.16526 97.7002 19.7491ZM95.02 16.6879Q86.1105 7.34744 72.1268 2.82959Q65.7068 0.755405 59.1583 0.201651Q42.9314 -1.17051 25.9152 6.79297Q10.2107 14.1423 3.92686 26.3435Q3.69997 26.7841 3.48535 27.231Q2.25123 29.8008 1.45409 32.4997Q-1.27024 41.7235 1.1095 52.4548Q3.75098 64.366 12.0342 75.7434Q19.7531 86.345 29.5356 92.7961Q63.4009 115.129 93.5785 126.788L95.02 127.344L96.4615 126.788Q126.639 115.129 160.504 92.7961Q170.287 86.345 178.006 75.7434Q186.289 64.366 188.93 52.4548Q191.31 41.7235 188.586 32.4997Q187.789 29.8008 186.555 27.231Q186.34 26.7841 186.113 26.3435Q179.829 14.1423 164.125 6.79297Q147.109 -1.17051 130.882 0.201651Q124.333 0.755405 117.913 2.82959Q103.93 7.34744 95.02 16.6879Z" clip-rule="evenodd" fill="#FFFF22" fill-opacity="1.000000" fill-rule="evenodd"/>
</svg>
