<svg width="360.841614" height="250.000000" viewBox="0 0 360.842 250" fill="none" xmlns="http://www.w3.org/2000/svg" xmlns:xlink="http://www.w3.org/1999/xlink">
	<desc>
			Created with Pixso.
	</desc>
	<defs/>
	<mask id="mask788_2917" mask-type="alpha" maskUnits="userSpaceOnUse" x="0.000000" y="0.000000" width="180.420654" height="250.000000">
		<rect id="Rectangle 4394" width="180.420715" height="250.000000" fill="#D9D9D9" fill-opacity="1.000000"/>
	</mask>
	<g mask="url(#mask788_2917)">
		<g opacity="0.100000">
			<path id="Union" d="M105.72 4.34Q95.72 5.02 85.83 7.2Q60.38 12.81 41.16 26.91Q35.38 31.15 30.17 36.16Q16.7 49.1 9.91 64.9Q3.19 80.55 3.02 99.01L3.02 99.02Q2.98 102.44 3.26 105.84Q5.28 131.34 24.3 155.49Q39.87 175.26 66.8 193.78Q110.48 223.82 168.66 243.26L180.2 247.12L191.73 243.27Q249.91 223.83 293.6 193.78Q320.53 175.26 336.09 155.49Q355.11 131.34 357.14 105.84Q357.41 102.44 357.38 99.01Q357.21 80.55 350.49 64.9Q343.7 49.1 330.23 36.16Q325.01 31.15 319.23 26.91Q300.01 12.81 274.57 7.2Q264.67 5.02 254.66 4.34Q240.74 3.39 226.63 5.35Q205.64 8.26 187.67 17.21Q183.87 19.11 180.2 21.27Q176.53 19.11 172.72 17.21Q154.75 8.26 133.77 5.35Q119.65 3.39 105.72 4.34ZM180.2 24.1C151.03 6.4 115.95 3.05 86.35 9.57C48.4 17.94 5.93 46.96 5.44 99.03L5.44 99.04C5.24 120.94 14.89 139.62 26.21 153.99C37.61 168.47 52.63 181.09 68.17 191.78C99.29 213.18 137.66 230.35 169.43 240.96L180.2 244.56L190.96 240.96C222.73 230.35 261.1 213.19 292.23 191.78C307.77 181.09 322.78 168.47 334.19 153.99C345.5 139.62 355.16 120.94 354.95 99.03C354.46 46.96 311.99 17.94 274.04 9.57C244.44 3.05 209.37 6.4 180.2 24.1Z" fill="#FF51FF" fill-opacity="1.000000" fill-rule="evenodd"/>
		</g>
	</g>
	<g mask="url(#mask788_2917)">
		<path id="Union" d="M14.34 99.12L14.34 99.12Q14.33 100.91 14.41 102.7Q15.47 125.97 33.2 148.48Q47.7 166.9 73.22 184.44Q115.58 213.59 172.25 232.52L180.2 235.18L188.14 232.52Q244.8 213.6 287.18 184.45Q312.69 166.9 327.2 148.48Q344.93 125.97 345.99 102.7Q346.07 100.91 346.05 99.11Q345.91 83.46 340.31 70.09Q334.39 55.93 322.36 44.32Q318.81 40.89 314.95 37.86Q296.93 23.73 272.13 18.26Q261.39 15.9 250.58 15.45Q237.73 14.91 224.77 17.09Q204.43 20.5 187.59 30.07Q183.8 32.22 180.2 34.68Q176.59 32.22 172.8 30.07Q155.96 20.5 135.63 17.09Q122.66 14.91 109.8 15.45Q99 15.9 88.27 18.26Q63.46 23.73 45.45 37.86Q41.58 40.89 38.03 44.32Q26 55.93 20.08 70.09Q14.49 83.46 14.34 99.11L14.34 99.12ZM180.2 37.63C152.87 18.36 118.07 14.18 88.79 20.63C53.54 28.4 17.19 54.51 16.77 99.14L16.77 99.14C16.6 117.55 24.71 133.78 35.11 146.98C45.56 160.25 59.59 172.13 74.59 182.44C104.62 203.1 141.97 219.84 173.02 230.22L180.2 232.62L187.38 230.22C218.43 219.85 255.78 203.1 285.81 182.45C300.81 172.13 314.84 160.25 325.29 146.98C335.69 133.78 343.8 117.55 343.63 99.14C343.21 54.51 306.86 28.4 271.6 20.63C242.33 14.18 207.52 18.36 180.2 37.63Z" fill="#FF51FF" fill-opacity="0.400000" fill-rule="evenodd"/>
	</g>
	<g mask="url(#mask788_2917)">
		<path id="Union" d="M310.4 48.74Q293.78 34.63 269.69 29.32Q257.83 26.71 245.97 26.65Q234.29 26.6 222.61 29.01Q203.21 33.03 187.85 43.16Q183.89 45.78 180.2 48.8Q176.5 45.78 172.54 43.16Q157.18 33.03 137.78 29.01Q126.1 26.6 114.42 26.65Q102.56 26.71 90.71 29.32Q66.62 34.63 50 48.74Q47.9 50.52 45.92 52.45Q35.32 62.74 30.27 75.26Q25.79 86.36 25.67 99.22Q25.67 99.52 25.67 99.81Q25.7 120.66 42.1 141.48Q55.54 158.54 79.63 175.11Q120.69 203.35 175.84 221.78L180.2 223.23L184.56 221.78Q239.7 203.36 280.76 175.11Q304.86 158.54 318.3 141.48Q334.69 120.66 334.73 99.81Q334.73 99.51 334.73 99.22Q334.61 86.36 330.13 75.26Q325.08 62.74 314.48 52.45Q312.5 50.52 310.4 48.74ZM180.2 51.97C155.19 30.57 120.45 25.25 91.23 31.69C58.73 38.86 28.45 62 28.1 99.24C27.96 114.17 34.53 127.94 44.01 139.97C53.51 152.03 66.55 163.17 81.01 173.11C109.95 193.01 146.27 209.34 176.61 219.48L180.2 220.68L183.79 219.48C214.13 209.34 250.45 193.02 279.39 173.11C293.85 163.17 306.89 152.03 316.39 139.97C325.86 127.94 332.44 114.17 332.3 99.24C331.95 62 301.66 38.86 269.17 31.69C239.95 25.25 205.2 30.57 180.2 51.97Z" fill="#FF51FF" fill-opacity="1.000000" fill-rule="evenodd"/>
	</g>
	<mask id="mask788_2922" mask-type="alpha" maskUnits="userSpaceOnUse" x="180.420898" y="0.000000" width="180.420654" height="250.000000">
		<rect id="Rectangle 4394" width="180.420715" height="250.000000" transform="matrix(-1 0 0 1 360.842 0)" fill="#D9D9D9" fill-opacity="1.000000"/>
	</mask>
	<g mask="url(#mask788_2922)">
		<g opacity="0.100000">
			<path id="Union" d="M255.11 4.34Q265.11 5.02 275 7.2Q300.45 12.81 319.67 26.91Q325.45 31.15 330.66 36.16Q344.13 49.1 350.92 64.9Q357.64 80.55 357.82 99.01L357.82 99.02Q357.85 102.44 357.58 105.84Q355.55 131.34 336.53 155.49Q320.96 175.26 294.04 193.78Q250.35 223.82 192.17 243.26L180.64 247.12L169.1 243.27Q110.93 223.83 67.23 193.78Q40.3 175.26 24.74 155.49Q5.72 131.34 3.69 105.84Q3.42 102.44 3.45 99.01Q3.63 80.55 10.35 64.9Q17.14 49.1 30.61 36.16Q35.82 31.15 41.6 26.91Q60.82 12.81 86.27 7.2Q96.17 5.02 106.17 4.34Q120.09 3.39 134.21 5.35Q155.19 8.26 173.16 17.21Q176.97 19.11 180.63 21.27Q184.31 19.11 188.11 17.21Q206.08 8.26 227.06 5.35Q241.18 3.39 255.11 4.34ZM180.63 24.1C209.8 6.4 244.88 3.05 274.48 9.57C312.43 17.94 354.9 46.96 355.39 99.03L355.39 99.04C355.59 120.94 345.94 139.62 334.62 153.99C323.22 168.47 308.2 181.09 292.66 191.78C261.54 213.18 223.17 230.35 191.4 240.96L180.64 244.56L169.87 240.96C138.1 230.35 99.73 213.19 68.61 191.78C53.06 181.09 38.05 168.47 26.65 153.99C15.33 139.62 5.67 120.94 5.88 99.03C6.37 46.96 48.84 17.94 86.79 9.57C116.39 3.05 151.47 6.4 180.63 24.1Z" fill="#FFFF22" fill-opacity="1.000000" fill-rule="evenodd"/>
		</g>
	</g>
	<g mask="url(#mask788_2922)">
		<path id="Union" d="M346.49 99.12L346.49 99.12Q346.51 100.91 346.42 102.7Q345.36 125.97 327.63 148.48Q313.13 166.9 287.62 184.44Q245.25 213.59 188.58 232.52L180.64 235.18L172.69 232.52Q116.03 213.6 73.65 184.45Q48.14 166.9 33.64 148.48Q15.91 125.97 14.84 102.7Q14.76 100.91 14.78 99.11Q14.93 83.46 20.52 70.09Q26.44 55.93 38.47 44.32Q42.02 40.89 45.88 37.86Q63.9 23.73 88.7 18.26Q99.44 15.9 110.25 15.45Q123.1 14.91 136.07 17.09Q156.4 20.5 173.24 30.07Q177.03 32.22 180.63 34.68Q184.24 32.22 188.03 30.07Q204.87 20.5 225.2 17.09Q238.17 14.91 251.03 15.45Q261.84 15.9 272.57 18.26Q297.37 23.73 315.39 37.86Q319.25 40.89 322.8 44.32Q334.83 55.93 340.75 70.09Q346.34 83.46 346.49 99.11L346.49 99.12ZM180.63 37.63C207.96 18.36 242.76 14.18 272.04 20.63C307.3 28.4 343.64 54.51 344.06 99.14L344.06 99.14C344.23 117.55 336.12 133.78 325.72 146.98C315.27 160.25 301.24 172.13 286.24 182.44C256.21 203.1 218.87 219.84 187.81 230.22L180.64 232.62L173.46 230.22C142.4 219.85 105.06 203.1 75.03 182.45C60.02 172.13 46 160.25 35.54 146.98C25.15 133.78 17.03 117.55 17.21 99.14C17.63 54.51 53.97 28.4 89.23 20.63C118.51 14.18 153.31 18.36 180.63 37.63Z" fill="#FFFF22" fill-opacity="0.400000" fill-rule="evenodd"/>
	</g>
	<g mask="url(#mask788_2922)">
		<path id="Union" d="M50.44 48.74Q67.06 34.63 91.14 29.32Q103 26.71 114.87 26.65Q126.54 26.6 138.22 29.01Q157.62 33.03 172.98 43.16Q176.94 45.78 180.63 48.8Q184.33 45.78 188.29 43.16Q203.65 33.03 223.05 29.01Q234.73 26.6 246.41 26.65Q258.28 26.71 270.13 29.32Q294.21 34.63 310.83 48.74Q312.93 50.52 314.92 52.45Q325.51 62.74 330.56 75.26Q335.04 86.36 335.16 99.22Q335.17 99.52 335.16 99.81Q335.13 120.66 318.73 141.48Q305.29 158.54 281.2 175.11Q240.15 203.35 184.99 221.78L180.64 223.23L176.28 221.78Q121.13 203.36 80.07 175.11Q55.98 158.54 42.54 141.48Q26.14 120.66 26.1 99.81Q26.1 99.51 26.11 99.22Q26.23 86.36 30.7 75.26Q35.76 62.74 46.35 52.45Q48.33 50.52 50.44 48.74ZM180.63 51.97C205.64 30.57 240.38 25.25 269.6 31.69C302.1 38.86 332.38 62 332.74 99.24C332.88 114.17 326.3 127.94 316.82 139.97C307.32 152.03 294.28 163.17 279.82 173.11C250.89 193.01 214.56 209.34 184.22 219.48L180.63 220.68L177.05 219.48C146.71 209.34 110.38 193.02 81.45 173.11C66.98 163.17 53.94 152.03 44.44 139.97C34.97 127.94 28.39 114.17 28.53 99.24C28.88 62 59.17 38.86 91.67 31.69C120.89 25.25 155.63 30.57 180.63 51.97Z" fill="#FFFF22" fill-opacity="1.000000" fill-rule="evenodd"/>
	</g>
</svg>
