<svg width="190" height="129" viewBox="0 0 190 129" fill="none" xmlns="http://www.w3.org/2000/svg">
<mask id="path-1-outside-1_788_5588" maskUnits="userSpaceOnUse" x="0" y="0" width="190" height="129" fill="black">
<rect fill="white" width="190" height="129"/>
<path fill-rule="evenodd" clip-rule="evenodd" d="M95 23.7526C86.6541 13.0118 61.4879 -4.50397 27.5906 11.3594C-14.781 31.1885 8.33075 74.9779 31.7177 90.4006C55.1046 105.823 79.317 117.941 95 124C110.683 117.941 134.895 105.823 158.282 90.4006C181.669 74.9779 204.781 31.1885 162.409 11.3594C128.512 -4.50397 103.346 13.0118 95 23.7526Z"/>
</mask>
<path d="M27.5906 11.3594L25.8951 7.73646H25.8951L27.5906 11.3594ZM95 23.7526L91.8414 26.2069L95 30.2718L98.1585 26.2069L95 23.7526ZM31.7177 90.4006L33.9198 87.0613L31.7177 90.4006ZM95 124L93.5585 127.731L95 128.288L96.4415 127.731L95 124ZM158.282 90.4006L160.484 93.7399L158.282 90.4006ZM162.409 11.3594L164.105 7.73646L162.409 11.3594ZM29.286 14.9823C61.0426 0.120756 84.3078 16.5114 91.8414 26.2069L98.1585 21.2983C89.0004 9.51216 61.9332 -9.12869 25.8951 7.73646L29.286 14.9823ZM33.9198 87.0613C22.9633 79.836 12.048 65.863 8.8998 51.6664C7.34632 44.6612 7.71992 37.7951 10.6769 31.6378C13.6249 25.4992 19.3476 19.6333 29.286 14.9823L25.8951 7.73646C14.6477 13.0001 7.37009 20.0437 3.46536 28.1745C-0.430394 36.2867 -0.761847 45.0498 1.08954 53.3984C4.75103 69.9094 17.0852 85.5425 29.5156 93.7399L33.9198 87.0613ZM96.4415 120.269C81.0529 114.324 57.094 102.344 33.9198 87.0613L29.5156 93.7399C53.1153 109.303 77.5811 121.559 93.5585 127.731L96.4415 120.269ZM96.4415 127.731C112.419 121.559 136.885 109.303 160.484 93.7399L156.08 87.0613C132.906 102.344 108.947 114.324 93.5585 120.269L96.4415 127.731ZM160.484 93.7399C172.915 85.5425 185.249 69.9094 188.91 53.3984C190.762 45.0498 190.43 36.2867 186.535 28.1745C182.63 20.0437 175.352 13.0001 164.105 7.73646L160.714 14.9823C170.652 19.6333 176.375 25.4992 179.323 31.6378C182.28 37.7951 182.654 44.6612 181.1 51.6664C177.952 65.863 167.037 79.836 156.08 87.0613L160.484 93.7399ZM164.105 7.73646C128.067 -9.12869 101 9.51216 91.8414 21.2983L98.1585 26.2069C105.692 16.5114 128.957 0.120756 160.714 14.9823L164.105 7.73646Z" fill="#FFFF22" mask="url(#path-1-outside-1_788_5588)"/>
</svg>
