<svg width="1218.000000" height="1401.000000" viewBox="0 0 1218 1401" fill="none" xmlns="http://www.w3.org/2000/svg" xmlns:xlink="http://www.w3.org/1999/xlink">
	<desc>
			Created with Pixso.
	</desc>
	<defs>
		<filter id="filter_1023_127_dd" x="584.839355" y="287.839600" width="397.321289" height="849.321045" filterUnits="userSpaceOnUse" color-interpolation-filters="sRGB">
			<feFlood flood-opacity="0" result="BackgroundImageFix"/>
			<feBlend mode="normal" in="SourceGraphic" in2="BackgroundImageFix" result="shape"/>
			<feGaussianBlur stdDeviation="8.05348" result="effect_layerBlur_1"/>
		</filter>
		<filter id="filter_1023_130_dd" x="235.839355" y="287.839600" width="397.321289" height="849.321045" filterUnits="userSpaceOnUse" color-interpolation-filters="sRGB">
			<feFlood flood-opacity="0" result="BackgroundImageFix"/>
			<feBlend mode="normal" in="SourceGraphic" in2="BackgroundImageFix" result="shape"/>
			<feGaussianBlur stdDeviation="8.05348" result="effect_layerBlur_1"/>
		</filter>
	</defs>
	<g filter="url(#filter_1023_127_dd)">
		<mask id="mask1023_128" mask-type="alpha" maskUnits="userSpaceOnUse" x="609.000000" y="312.000000" width="349.000000" height="801.000000">
			<rect id="Rectangle 81" rx="9.664182" width="348.999939" height="801.000000" transform="matrix(1 8.74228e-08 8.74228e-08 -1 609 1113)" fill="#D9D9D9" fill-opacity="1.000000"/>
		</mask>
		<g mask="url(#mask1023_128)">
			<path id="Polygon 2" d="M604.16 1084.55L323.33 922.41C320.34 920.68 318.5 917.49 318.5 914.04L318.5 589.76C318.5 586.31 320.34 583.12 323.33 581.39L604.16 419.25C607.15 417.52 610.84 417.52 613.83 419.25L894.66 581.39C897.65 583.12 899.5 586.31 899.5 589.76L899.5 914.04C899.5 917.49 897.65 920.68 894.66 922.41L613.83 1084.55C610.84 1086.28 607.15 1086.28 604.16 1084.55Z" fill="#62196D" fill-opacity="0" fill-rule="evenodd"/>
			<path id="Polygon 2" d="M323.33 922.41C320.34 920.68 318.5 917.49 318.5 914.04L318.5 589.76C318.5 586.31 320.34 583.12 323.33 581.39L604.16 419.25C607.15 417.52 610.84 417.52 613.83 419.25L894.66 581.39C897.65 583.12 899.5 586.31 899.5 589.76L899.5 914.04C899.5 917.49 897.65 920.68 894.66 922.41L613.83 1084.55C610.84 1086.28 607.15 1086.28 604.16 1084.55L323.33 922.41ZM326.33 917.21C325.2 916.56 324.5 915.35 324.5 914.04L324.5 589.76C324.5 588.45 325.2 587.24 326.33 586.59L607.16 424.45C608.3 423.79 609.7 423.79 610.83 424.45L891.66 586.59C892.8 587.24 893.5 588.45 893.5 589.76L893.5 914.04C893.5 915.35 892.8 916.56 891.66 917.21L610.83 1079.36C609.69 1080.01 608.3 1080.01 607.16 1079.36L326.33 917.21Z" fill="#FFFF22" fill-opacity="1.000000" fill-rule="evenodd"/>
		</g>
	</g>
	<g filter="url(#filter_1023_130_dd)">
		<mask id="mask1023_131" mask-type="alpha" maskUnits="userSpaceOnUse" x="260.000000" y="312.000000" width="349.000000" height="801.000000">
			<rect id="Rectangle 80" rx="9.664182" width="348.999939" height="801.000000" transform="matrix(1 8.74228e-08 8.74228e-08 -1 260 1113)" fill="#D9D9D9" fill-opacity="1.000000"/>
		</mask>
		<g mask="url(#mask1023_131)">
			<path id="Polygon 3" d="M603.67 1084.55L322.84 922.41C319.85 920.68 318.01 917.49 318.01 914.04L318.01 589.76C318.01 586.31 319.85 583.12 322.84 581.39L603.67 419.25C606.66 417.52 610.35 417.52 613.34 419.25L894.17 581.39C897.16 583.12 899 586.31 899 589.76L899 914.04C899 917.49 897.16 920.68 894.17 922.41L613.34 1084.55C610.35 1086.28 606.66 1086.28 603.67 1084.55Z" fill="#62196D" fill-opacity="0" fill-rule="evenodd"/>
			<path id="Polygon 3" d="M322.84 922.41C319.85 920.68 318.01 917.49 318.01 914.04L318.01 589.76C318.01 586.31 319.85 583.12 322.84 581.39L603.67 419.25C606.66 417.52 610.35 417.52 613.34 419.25L894.17 581.39C897.16 583.12 899 586.31 899 589.76L899 914.04C899 917.49 897.16 920.68 894.17 922.41L613.34 1084.55C610.35 1086.28 606.66 1086.28 603.67 1084.55L322.84 922.41ZM325.84 917.21C324.7 916.56 324.01 915.35 324.01 914.04L324.01 589.76C324.01 588.45 324.7 587.24 325.84 586.59L606.67 424.45C607.81 423.79 609.2 423.79 610.34 424.45L891.17 586.59C892.3 587.24 893 588.45 893 589.76L893 914.04C893 915.35 892.3 916.56 891.17 917.21L610.34 1079.36C609.2 1080.01 607.81 1080.01 606.67 1079.36L325.84 917.21Z" fill="#FF51FF" fill-opacity="1.000000" fill-rule="evenodd"/>
		</g>
	</g>
	<mask id="mask1023_134" mask-type="alpha" maskUnits="userSpaceOnUse" x="609.000000" y="312.000000" width="349.000000" height="801.000000">
		<rect id="Rectangle 81" rx="14.496273" width="348.999939" height="801.000000" transform="matrix(1 8.74228e-08 8.74228e-08 -1 609 1113)" fill="#D9D9D9" fill-opacity="1.000000"/>
	</mask>
	<g mask="url(#mask1023_134)">
		<path id="Polygon 2" d="M601.75 1083.16L325.75 923.8C321.26 921.21 318.5 916.43 318.5 911.25L318.5 592.55C318.5 587.37 321.26 582.59 325.75 580L601.75 420.65C606.23 418.06 611.76 418.06 616.24 420.65L892.25 580C896.73 582.59 899.5 587.37 899.5 592.55L899.5 911.25C899.5 916.43 896.73 921.21 892.25 923.8L616.24 1083.16C611.76 1085.75 606.23 1085.75 601.75 1083.16Z" fill="#62196D" fill-opacity="0" fill-rule="evenodd"/>
		<path id="Polygon 2" d="M325.75 923.8C321.26 921.21 318.5 916.43 318.5 911.25L318.5 592.55C318.5 587.37 321.26 582.59 325.75 580L601.75 420.65C606.23 418.06 611.76 418.06 616.24 420.65L892.25 580C896.73 582.59 899.5 587.37 899.5 592.55L899.5 911.25C899.5 916.43 896.73 921.21 892.25 923.8L616.24 1083.16C611.76 1085.75 606.23 1085.75 601.75 1083.16L325.75 923.8ZM328.75 918.61C326.12 917.09 324.5 914.29 324.5 911.25L324.5 592.55C324.5 589.51 326.12 586.71 328.75 585.19L604.75 425.84C607.38 424.32 610.62 424.32 613.25 425.84L889.25 585.19C891.88 586.71 893.5 589.51 893.5 592.55L893.5 911.25C893.5 914.29 891.88 917.09 889.25 918.61L613.24 1077.96C610.62 1079.48 607.38 1079.48 604.75 1077.96L328.75 918.61Z" fill="#FFFF22" fill-opacity="1.000000" fill-rule="evenodd"/>
	</g>
	<mask id="mask1023_137" mask-type="alpha" maskUnits="userSpaceOnUse" x="260.000000" y="312.000000" width="349.000000" height="801.000000">
		<rect id="Rectangle 80" rx="14.496273" width="348.999939" height="801.000000" transform="matrix(1 8.74228e-08 8.74228e-08 -1 260 1113)" fill="#D9D9D9" fill-opacity="1.000000"/>
	</mask>
	<g mask="url(#mask1023_137)">
		<path id="Polygon 3" d="M601.26 1083.16L325.25 923.8C320.77 921.21 318.01 916.43 318.01 911.25L318.01 592.55C318.01 587.37 320.77 582.59 325.25 580L601.26 420.65C605.74 418.06 611.27 418.06 615.75 420.65L891.75 580C896.24 582.59 899 587.37 899 592.55L899 911.25C899 916.43 896.24 921.21 891.75 923.8L615.75 1083.16C611.27 1085.75 605.74 1085.75 601.26 1083.16Z" fill="#62196D" fill-opacity="0" fill-rule="evenodd"/>
		<path id="Polygon 3" d="M325.25 923.8C320.77 921.21 318.01 916.43 318.01 911.25L318.01 592.55C318.01 587.37 320.77 582.59 325.25 580L601.26 420.65C605.74 418.06 611.27 418.06 615.75 420.65L891.75 580C896.24 582.59 899 587.37 899 592.55L899 911.25C899 916.43 896.24 921.21 891.75 923.8L615.75 1083.16C611.27 1085.75 605.74 1085.75 601.26 1083.16L325.25 923.8ZM328.25 918.61C325.63 917.09 324.01 914.29 324.01 911.25L324.01 592.55C324.01 589.51 325.63 586.71 328.25 585.19L604.26 425.84C606.89 424.32 610.12 424.32 612.75 425.84L888.75 585.19C891.38 586.71 893 589.51 893 592.55L893 911.25C893 914.29 891.38 917.09 888.75 918.61L612.75 1077.96C610.12 1079.48 606.89 1079.48 604.26 1077.96L328.25 918.61Z" fill="#FF51FF" fill-opacity="1.000000" fill-rule="evenodd"/>
	</g>
	<g opacity="0.700000">
		<mask id="mask1023_140" mask-type="alpha" maskUnits="userSpaceOnUse" x="609.000000" y="218.000000" width="429.000000" height="987.000000">
			<rect id="Rectangle 81" rx="24.160454" width="428.999908" height="987.000061" transform="matrix(1 8.74228e-08 8.74228e-08 -1 609 1205)" fill="#D9D9D9" fill-opacity="1.000000"/>
		</mask>
		<g mask="url(#mask1023_140)">
			<path id="Polygon 2" d="M596.92 1165.81L263.4 973.25C255.93 968.93 251.32 960.95 251.32 952.32L251.32 567.21C251.32 558.58 255.93 550.6 263.4 546.29L596.92 353.73C604.39 349.42 613.6 349.42 621.08 353.73L954.59 546.29C962.07 550.61 966.67 558.58 966.67 567.21L966.67 952.32C966.67 960.95 962.07 968.93 954.59 973.25L621.08 1165.81C613.6 1170.12 604.39 1170.12 596.92 1165.81Z" fill="#62196D" fill-opacity="0" fill-rule="evenodd"/>
			<path id="Polygon 2" d="M263.4 973.25C255.93 968.93 251.32 960.95 251.32 952.32L251.32 567.21C251.32 558.58 255.93 550.6 263.4 546.29L596.92 353.73C604.39 349.42 613.6 349.42 621.08 353.73L954.59 546.29C962.07 550.61 966.67 558.58 966.67 567.21L966.67 952.32C966.67 960.95 962.07 968.93 954.59 973.25L621.08 1165.81C613.6 1170.12 604.39 1170.12 596.92 1165.81L263.4 973.25ZM266.4 968.05C260.78 964.81 257.32 958.81 257.32 952.32L257.32 567.21C257.32 560.72 260.78 554.73 266.4 551.49L599.92 358.93C605.53 355.69 612.46 355.69 618.08 358.93L951.59 551.49C957.21 554.73 960.67 560.72 960.67 567.21L960.67 952.32C960.67 958.81 957.21 964.81 951.59 968.05L618.08 1160.61C612.46 1163.85 605.53 1163.85 599.92 1160.61L266.4 968.05Z" fill="#FFFF22" fill-opacity="1.000000" fill-rule="evenodd"/>
		</g>
	</g>
	<g opacity="0.700000">
		<mask id="mask1023_143" mask-type="alpha" maskUnits="userSpaceOnUse" x="180.000000" y="218.000000" width="429.000000" height="987.000000">
			<rect id="Rectangle 80" rx="24.160454" width="428.999908" height="987.000061" transform="matrix(1 8.74228e-08 8.74228e-08 -1 180 1205)" fill="#D9D9D9" fill-opacity="1.000000"/>
		</mask>
		<g mask="url(#mask1023_143)">
			<path id="Polygon 3" d="M597.02 1165.81L263.5 973.25C256.03 968.93 251.42 960.95 251.42 952.32L251.42 567.21C251.42 558.58 256.03 550.6 263.5 546.29L597.02 353.73C604.49 349.42 613.7 349.42 621.18 353.73L954.69 546.29C962.17 550.61 966.77 558.58 966.77 567.21L966.77 952.32C966.77 960.95 962.17 968.93 954.69 973.25L621.18 1165.81C613.7 1170.12 604.49 1170.12 597.02 1165.81Z" fill="#62196D" fill-opacity="0" fill-rule="evenodd"/>
			<path id="Polygon 3" d="M263.5 973.25C256.03 968.93 251.42 960.95 251.42 952.32L251.42 567.21C251.42 558.58 256.03 550.6 263.5 546.29L597.02 353.73C604.49 349.42 613.7 349.42 621.18 353.73L954.69 546.29C962.17 550.61 966.77 558.58 966.77 567.21L966.77 952.32C966.77 960.95 962.17 968.93 954.69 973.25L621.18 1165.81C613.7 1170.12 604.49 1170.12 597.02 1165.81L263.5 973.25ZM266.5 968.05C260.88 964.81 257.42 958.81 257.42 952.32L257.42 567.21C257.42 560.72 260.88 554.73 266.5 551.49L600.02 358.93C605.64 355.69 612.56 355.69 618.18 358.93L951.69 551.49C957.31 554.73 960.77 560.72 960.77 567.21L960.77 952.32C960.77 958.81 957.31 964.81 951.69 968.05L618.18 1160.61C612.56 1163.85 605.64 1163.85 600.02 1160.61L266.5 968.05Z" fill="#FF51FF" fill-opacity="1.000000" fill-rule="evenodd"/>
		</g>
	</g>
	<g opacity="0.400000">
		<mask id="mask1023_146" mask-type="alpha" maskUnits="userSpaceOnUse" x="609.000000" y="114.571777" width="517.647461" height="1190.588379">
			<rect id="Rectangle 81" rx="48.320908" width="517.647156" height="1190.588501" transform="matrix(1 8.74228e-08 8.74228e-08 -1 609 1305.16)" fill="#D9D9D9" fill-opacity="1.000000"/>
		</mask>
		<g mask="url(#mask1023_146)">
			<path id="Polygon 2" d="M584.84 1252.39L201.67 1031.17C186.72 1022.54 177.51 1006.58 177.51 989.32L177.51 546.88C177.51 529.61 186.72 513.66 201.67 505.03L584.84 283.81C599.79 275.18 618.21 275.18 633.16 283.81L1016.33 505.03C1031.28 513.66 1040.49 529.61 1040.49 546.88L1040.49 989.32C1040.49 1006.58 1031.28 1022.54 1016.33 1031.17L633.16 1252.39C618.21 1261.02 599.79 1261.02 584.84 1252.39Z" fill="#62196D" fill-opacity="0" fill-rule="evenodd"/>
			<path id="Polygon 2" d="M201.67 1031.17C186.72 1022.54 177.51 1006.58 177.51 989.32L177.51 546.88C177.51 529.61 186.72 513.66 201.67 505.03L584.84 283.81C599.79 275.18 618.21 275.18 633.16 283.81L1016.33 505.03C1031.28 513.66 1040.49 529.61 1040.49 546.88L1040.49 989.32C1040.49 1006.58 1031.28 1022.54 1016.33 1031.17L633.16 1252.39C618.21 1261.02 599.79 1261.02 584.84 1252.39L201.67 1031.17ZM204.67 1025.97C191.58 1018.41 183.51 1004.44 183.51 989.32L183.51 546.88C183.51 531.76 191.58 517.79 204.67 510.23L587.84 289.01C600.93 281.45 617.06 281.45 630.16 289.01L1013.33 510.23C1026.42 517.79 1034.49 531.76 1034.49 546.88L1034.49 989.32C1034.49 1004.44 1026.42 1018.41 1013.33 1025.97L630.16 1247.18C617.06 1254.75 600.93 1254.75 587.84 1247.18L204.67 1025.97Z" fill="#FFFF22" fill-opacity="1.000000" fill-rule="evenodd"/>
		</g>
	</g>
	<g opacity="0.400000">
		<mask id="mask1023_149" mask-type="alpha" maskUnits="userSpaceOnUse" x="91.000000" y="115.000000" width="518.000000" height="1190.000000">
			<rect id="Rectangle 80" rx="48.320908" width="517.999878" height="1190.000000" transform="matrix(1 8.74228e-08 8.74228e-08 -1 91 1305)" fill="#D9D9D9" fill-opacity="1.000000"/>
		</mask>
		<g mask="url(#mask1023_149)">
			<path id="Polygon 3" d="M584.48 1252.39L201.32 1031.17C186.37 1022.54 177.16 1006.58 177.16 989.32L177.16 546.88C177.16 529.61 186.37 513.66 201.32 505.03L584.48 283.81C599.43 275.18 617.85 275.18 632.8 283.81L1015.97 505.03C1030.92 513.66 1040.13 529.61 1040.13 546.88L1040.13 989.32C1040.13 1006.58 1030.92 1022.54 1015.97 1031.17L632.8 1252.39C617.85 1261.02 599.43 1261.02 584.48 1252.39Z" fill="#62196D" fill-opacity="0" fill-rule="evenodd"/>
			<path id="Polygon 3" d="M201.32 1031.17C186.37 1022.54 177.16 1006.58 177.16 989.32L177.16 546.88C177.16 529.61 186.37 513.66 201.32 505.03L584.48 283.81C599.43 275.18 617.85 275.18 632.8 283.81L1015.97 505.03C1030.92 513.66 1040.13 529.61 1040.13 546.88L1040.13 989.32C1040.13 1006.58 1030.92 1022.54 1015.97 1031.17L632.8 1252.39C617.85 1261.02 599.43 1261.02 584.48 1252.39L201.32 1031.17ZM204.32 1025.97C191.22 1018.41 183.16 1004.44 183.16 989.32L183.16 546.88C183.16 531.76 191.22 517.79 204.32 510.23L587.48 289.01C600.57 281.45 616.71 281.45 629.8 289.01L1012.97 510.23C1026.06 517.79 1034.13 531.76 1034.13 546.88L1034.13 989.32C1034.13 1004.44 1026.06 1018.41 1012.97 1025.97L629.8 1247.18C616.71 1254.75 600.57 1254.75 587.48 1247.18L204.32 1025.97Z" fill="#FF51FF" fill-opacity="1.000000" fill-rule="evenodd"/>
		</g>
	</g>
	<g opacity="0.100000">
		<mask id="mask1023_152" mask-type="alpha" maskUnits="userSpaceOnUse" x="609.000000" y="0.000000" width="609.000000" height="1401.000000">
			<rect id="Rectangle 81" rx="72.481361" width="608.999878" height="1401.000000" transform="matrix(1 8.74228e-08 8.74228e-08 -1 609 1401)" fill="#D9D9D9" fill-opacity="1.000000"/>
		</mask>
		<g mask="url(#mask1023_152)">
			<path id="Polygon 2" d="M572.76 1334.39L137.5 1083.1C115.07 1070.15 101.26 1046.22 101.26 1020.32L101.26 517.73C101.26 491.83 115.07 467.9 137.5 454.96L572.76 203.66C595.18 190.71 622.81 190.71 645.24 203.66L1080.5 454.96C1102.93 467.9 1116.74 491.83 1116.74 517.73L1116.74 1020.32C1116.74 1046.22 1102.93 1070.15 1080.5 1083.1L645.24 1334.39C622.81 1347.34 595.18 1347.34 572.76 1334.39Z" fill="#62196D" fill-opacity="0" fill-rule="evenodd"/>
			<path id="Polygon 2" d="M137.5 1083.1C115.07 1070.15 101.26 1046.22 101.26 1020.32L101.26 517.73C101.26 491.83 115.07 467.9 137.5 454.96L572.76 203.66C595.18 190.71 622.81 190.71 645.24 203.66L1080.5 454.96C1102.93 467.9 1116.74 491.83 1116.74 517.73L1116.74 1020.32C1116.74 1046.22 1102.93 1070.15 1080.5 1083.1L645.24 1334.39C622.81 1347.34 595.18 1347.34 572.76 1334.39L137.5 1083.1ZM140.5 1077.9C119.93 1066.02 107.26 1044.07 107.26 1020.32L107.26 517.73C107.26 493.97 119.93 472.03 140.5 460.15L575.76 208.85C596.33 196.98 621.67 196.98 642.24 208.85L1077.5 460.15C1098.06 472.03 1110.74 493.97 1110.74 517.73L1110.74 1020.32C1110.74 1044.07 1098.06 1066.02 1077.5 1077.9L642.24 1329.2C621.67 1341.07 596.33 1341.07 575.76 1329.2L140.5 1077.9Z" fill="#FFFF22" fill-opacity="1.000000" fill-rule="evenodd"/>
		</g>
	</g>
	<g opacity="0.100000">
		<mask id="mask1023_155" mask-type="alpha" maskUnits="userSpaceOnUse" x="0.000000" y="0.000000" width="609.000000" height="1401.000000">
			<rect id="Rectangle 80" rx="72.481361" width="608.999878" height="1401.000000" transform="matrix(1 8.74228e-08 8.74228e-08 -1 0 1401)" fill="#D9D9D9" fill-opacity="1.000000"/>
		</mask>
		<g mask="url(#mask1023_155)">
			<path id="Polygon 3" d="M572.89 1334.39L137.63 1083.1C115.2 1070.15 101.39 1046.22 101.39 1020.32L101.39 517.73C101.39 491.83 115.2 467.9 137.63 454.96L572.89 203.66C595.31 190.71 622.94 190.71 645.37 203.66L1080.63 454.96C1103.06 467.9 1116.87 491.83 1116.87 517.73L1116.87 1020.32C1116.87 1046.22 1103.06 1070.15 1080.63 1083.1L645.37 1334.39C622.94 1347.34 595.31 1347.34 572.89 1334.39Z" fill="#62196D" fill-opacity="0" fill-rule="evenodd"/>
			<path id="Polygon 3" d="M137.63 1083.1C115.2 1070.15 101.39 1046.22 101.39 1020.32L101.39 517.73C101.39 491.83 115.2 467.9 137.63 454.96L572.89 203.66C595.31 190.71 622.94 190.71 645.37 203.66L1080.63 454.96C1103.06 467.9 1116.87 491.83 1116.87 517.73L1116.87 1020.32C1116.87 1046.22 1103.06 1070.15 1080.63 1083.1L645.37 1334.39C622.94 1347.34 595.31 1347.34 572.89 1334.39L137.63 1083.1ZM140.63 1077.9C120.06 1066.02 107.39 1044.07 107.39 1020.32L107.39 517.73C107.39 493.97 120.06 472.03 140.63 460.15L575.89 208.85C596.46 196.98 621.8 196.98 642.37 208.85L1077.63 460.15C1098.19 472.03 1110.87 493.97 1110.87 517.73L1110.87 1020.32C1110.87 1044.07 1098.19 1066.02 1077.63 1077.9L642.37 1329.2C621.8 1341.07 596.46 1341.07 575.89 1329.2L140.63 1077.9Z" fill="#FF51FF" fill-opacity="1.000000" fill-rule="evenodd"/>
		</g>
	</g>
</svg>
